<svg xmlns="http://www.w3.org/2000/svg"  viewBox="0 0 100 100" width="100px" height="100px"><path fill="#c7ede6" d="M88.474,55.52c0.3-0.616,0.566-1.264,0.796-1.943c2.633-7.77-1.349-17.078-9.733-19.325C78.63,22.869,70.63,15.06,61.596,13.727c-10.341-1.525-19.814,5.044-22.966,15.485c-3.799-1.346-7.501-1.182-10.99,0.857c-1.583,0.732-3.031,1.812-4.33,3.233c-1.907,2.086-3.147,4.719-3.652,7.495c-0.748,0.118-1.483,0.236-2.176,0.484c-4.04,1.449-6.589,4.431-7.288,8.923c-0.435,2.797,0.443,5.587,0.933,6.714c1.935,4.455,6.422,6.98,10.981,6.312c0.227-0.033,0.557,0.069,0.752,0.233c0.241,7.12,3.698,13.417,8.884,17.014c8.321,5.772,19.027,3.994,25.781-3.921c2.894,2.96,6.338,4.398,10.384,3.876c4.023-0.519,7.147-2.739,9.426-6.349c1.053,0.283,2.051,0.691,3.083,0.804c4.042,0.442,7.324-1.165,9.732-4.8c0.922-1.391,1.794-3.194,1.794-6.354C91.944,60.477,90.651,57.51,88.474,55.52z"/><path fill="#fdfcef" d="M76.579,48.892c0,0,11.691,0,11.762,0c2.7,0,4.888-2.189,4.888-4.889c0-2.355-1.666-4.321-3.884-4.784c0.026-0.206,0.043-0.415,0.043-0.628c0-2.796-2.267-5.063-5.063-5.063c-1.651,0-3.113,0.794-4.037,2.017c-0.236-3.113-3.017-5.514-6.27-5.116c-2.379,0.291-4.346,2.13-4.784,4.486c-0.14,0.756-0.126,1.489,0.014,2.177c-0.638-0.687-1.546-1.119-2.557-1.119c-1.85,0-3.361,1.441-3.48,3.261c-0.84-0.186-1.754-0.174-2.717,0.188c-1.84,0.691-3.15,2.423-3.227,4.387c-0.109,2.789,2.12,5.085,4.885,5.085c0.21,0,0.948,0,1.118,0h10.151"/><path fill="#472b29" d="M88.341,49.392H76.579c-0.276,0-0.5-0.224-0.5-0.5s0.224-0.5,0.5-0.5h11.762c2.42,0,4.389-1.969,4.389-4.389c0-2.066-1.466-3.873-3.486-4.296c-0.254-0.053-0.426-0.292-0.394-0.551c0.022-0.186,0.039-0.373,0.039-0.566c0-2.516-2.047-4.562-4.563-4.562c-1.438,0-2.765,0.663-3.639,1.818c-0.125,0.166-0.342,0.236-0.539,0.178c-0.2-0.059-0.342-0.234-0.358-0.441c-0.104-1.378-0.778-2.672-1.85-3.55c-1.083-0.888-2.45-1.28-3.86-1.108c-2.166,0.266-3.955,1.943-4.353,4.08c-0.124,0.668-0.12,1.336,0.013,1.987c0.044,0.22-0.062,0.442-0.262,0.545c-0.196,0.103-0.441,0.06-0.595-0.105c-0.574-0.618-1.352-0.959-2.19-0.959c-1.568,0-2.878,1.227-2.98,2.793c-0.01,0.146-0.082,0.28-0.199,0.367c-0.116,0.088-0.27,0.118-0.407,0.089c-0.845-0.185-1.64-0.132-2.434,0.167c-1.669,0.627-2.836,2.209-2.903,3.938c-0.047,1.207,0.387,2.351,1.222,3.219c0.836,0.868,1.959,1.347,3.163,1.347h11.27c0.276,0,0.5,0.224,0.5,0.5s-0.224,0.5-0.5,0.5h-11.27c-1.479,0-2.857-0.587-3.884-1.653c-1.025-1.066-1.559-2.47-1.501-3.951c0.084-2.126,1.511-4.069,3.552-4.835c0.799-0.3,1.628-0.398,2.468-0.299c0.377-1.822,1.996-3.182,3.904-3.182c0.685,0,1.354,0.18,1.944,0.51c-0.001-0.386,0.035-0.773,0.107-1.16c0.476-2.562,2.619-4.572,5.214-4.89c1.682-0.208,3.319,0.265,4.615,1.327c1.004,0.822,1.717,1.951,2.038,3.193c1.012-0.915,2.319-1.425,3.714-1.425c3.067,0,5.563,2.495,5.563,5.562c0,0.084-0.002,0.166-0.007,0.248c2.254,0.674,3.848,2.778,3.848,5.165C93.73,46.975,91.313,49.392,88.341,49.392z"/><path fill="#fdfcef" d="M73.746,38.123c-1.808-0.119-3.365,1.13-3.476,2.789c-0.014,0.206-0.005,0.409,0.025,0.606c-0.349-0.394-0.865-0.661-1.458-0.7c-1.085-0.071-2.022,0.645-2.158,1.62c-0.197-0.054-0.403-0.09-0.616-0.104c-1.582-0.104-2.944,0.989-3.042,2.441"/><path fill="#472b29" d="M63.022,45.024c-0.006,0-0.011,0-0.017-0.001c-0.138-0.009-0.242-0.128-0.232-0.266c0.105-1.586,1.562-2.793,3.307-2.673c0.135,0.008,0.271,0.026,0.409,0.053c0.274-0.968,1.254-1.651,2.365-1.568c0.426,0.027,0.823,0.16,1.163,0.382c0.001-0.019,0.002-0.036,0.004-0.055c0.119-1.794,1.783-3.16,3.742-3.022c0.138,0.009,0.242,0.128,0.232,0.266c-0.008,0.137-0.11,0.262-0.266,0.232c-1.662-0.082-3.108,1.039-3.211,2.558c-0.012,0.186-0.004,0.371,0.023,0.551c0.017,0.109-0.04,0.218-0.141,0.265c-0.102,0.045-0.221,0.022-0.294-0.061c-0.317-0.359-0.787-0.584-1.287-0.617c-0.947-0.037-1.774,0.556-1.893,1.405c-0.011,0.071-0.051,0.135-0.11,0.175c-0.06,0.039-0.135,0.051-0.203,0.032c-0.191-0.052-0.382-0.084-0.567-0.097c-1.451-0.089-2.688,0.896-2.776,2.208C63.262,44.923,63.153,45.024,63.022,45.024z"/><path fill="#fdfcef" d="M90.321,39.792c-1.699-0.801-3.664-0.234-4.389,1.267c-0.09,0.186-0.157,0.379-0.201,0.574"/><path fill="#472b29" d="M85.731,41.882c-0.018,0-0.036-0.002-0.055-0.006c-0.135-0.03-0.22-0.165-0.189-0.299c0.05-0.218,0.123-0.429,0.221-0.628c0.781-1.62,2.898-2.241,4.72-1.384c0.125,0.06,0.179,0.208,0.12,0.333c-0.06,0.126-0.21,0.176-0.333,0.12c-1.574-0.744-3.395-0.226-4.057,1.148c-0.081,0.166-0.143,0.341-0.183,0.52C85.949,41.802,85.845,41.882,85.731,41.882z"/><path fill="#fff" d="M18.139 47.556H8.109c-.276 0-.5-.224-.5-.5s.224-.5.5-.5h10.03c.276 0 .5.224.5.5S18.415 47.556 18.139 47.556zM21.02 47.556h-1.445c-.276 0-.5-.224-.5-.5s.224-.5.5-.5h1.445c.276 0 .5.224.5.5S21.296 47.556 21.02 47.556zM25.075 47.556h-2.546c-.276 0-.5-.224-.5-.5s.224-.5.5-.5h2.546c.276 0 .5.224.5.5S25.351 47.556 25.075 47.556zM25.075 49.422h-9.616c-.276 0-.5-.224-.5-.5s.224-.5.5-.5h9.616c.276 0 .5.224.5.5S25.351 49.422 25.075 49.422zM13.727 49.422h-.58c-.276 0-.5-.224-.5-.5s.224-.5.5-.5h.58c.276 0 .5.224.5.5S14.003 49.422 13.727 49.422zM11.35 49.422H9.894c-.276 0-.5-.224-.5-.5s.224-.5.5-.5h1.456c.276 0 .5.224.5.5S11.626 49.422 11.35 49.422zM20.486 45.691h-5.027c-.276 0-.5-.224-.5-.5s.224-.5.5-.5h5.027c.276 0 .5.224.5.5S20.762 45.691 20.486 45.691zM20.486 43.827h-1.257c-.276 0-.5-.224-.5-.5s.224-.5.5-.5h1.257c.276 0 .5.224.5.5S20.762 43.827 20.486 43.827zM17.217 51.286h-1.759c-.276 0-.5-.224-.5-.5s.224-.5.5-.5h1.759c.276 0 .5.224.5.5S17.494 51.286 17.217 51.286zM71.317 21.279h-10.03c-.276 0-.5-.224-.5-.5s.224-.5.5-.5h10.03c.276 0 .5.224.5.5S71.593 21.279 71.317 21.279zM74.198 21.279h-1.445c-.276 0-.5-.224-.5-.5s.224-.5.5-.5h1.445c.276 0 .5.224.5.5S74.474 21.279 74.198 21.279zM78.252 21.279h-2.546c-.276 0-.5-.224-.5-.5s.224-.5.5-.5h2.546c.276 0 .5.224.5.5S78.529 21.279 78.252 21.279zM76.227 17.549h-9.616c-.276 0-.5-.224-.5-.5s.224-.5.5-.5h9.616c.276 0 .5.224.5.5S76.503 17.549 76.227 17.549zM64.879 17.549h-.58c-.276 0-.5-.224-.5-.5s.224-.5.5-.5h.58c.276 0 .5.224.5.5S65.156 17.549 64.879 17.549zM62.502 17.549h-1.456c-.276 0-.5-.224-.5-.5s.224-.5.5-.5h1.456c.276 0 .5.224.5.5S62.779 17.549 62.502 17.549zM73.663 19.415h-5.027c-.276 0-.5-.224-.5-.5s.224-.5.5-.5h5.027c.276 0 .5.224.5.5S73.94 19.415 73.663 19.415z"/><path fill="#fff" d="M73.663 17.549h-1.257c-.276 0-.5-.224-.5-.5s.224-.5.5-.5h1.257c.276 0 .5.224.5.5S73.94 17.549 73.663 17.549zM67.181 19.415h-1.759c-.276 0-.5-.224-.5-.5s.224-.5.5-.5h1.759c.276 0 .5.224.5.5S67.457 19.415 67.181 19.415z"/><path fill="#f1bc19" d="M66.585,72.49H36.872c-3.766,0-6.847-3.081-6.847-6.847V35.929c0-3.766,3.081-6.847,6.847-6.847h29.713c3.766,0,6.847,3.081,6.847,6.847v29.713C73.432,69.408,70.351,72.49,66.585,72.49z"/><path fill="#472b29" d="M66.585,73.19H36.872c-4.162,0-7.548-3.386-7.548-7.548V35.929c0-4.161,3.386-7.547,7.548-7.547h29.713c4.161,0,7.547,3.386,7.547,7.547v29.713C74.132,69.804,70.746,73.19,66.585,73.19z M36.872,29.783c-3.39,0-6.147,2.757-6.147,6.146v29.713c0,3.39,2.758,6.147,6.147,6.147h29.713c3.39,0,6.146-2.758,6.146-6.147V35.929c0-3.39-2.757-6.146-6.146-6.146H36.872z"/><path fill="#fdfcee" d="M64.783,69.389H38.674c-3.052,0-5.549-2.497-5.549-5.549V37.732c0-3.052,2.497-5.549,5.549-5.549h26.109c3.052,0,5.549,2.497,5.549,5.549V63.84C70.332,66.892,67.835,69.389,64.783,69.389z"/><path fill="#472b29" d="M64.678 69.739H38.78c-3.311 0-6.004-2.693-6.004-6.004V37.837c0-3.311 2.693-6.004 6.004-6.004h24.662c.193 0 .35.156.35.35 0 .193-.156.35-.35.35H38.78c-2.925 0-5.305 2.38-5.305 5.305v25.898c0 2.925 2.38 5.305 5.305 5.305h25.898c2.924 0 5.304-2.38 5.304-5.305V49.408c0-.193.156-.35.35-.35s.35.156.35.35v14.327C70.681 67.046 67.989 69.739 64.678 69.739zM70.331 47.69c-.193 0-.35-.156-.35-.35v-2.756c0-.193.156-.35.35-.35s.35.156.35.35v2.756C70.681 47.534 70.525 47.69 70.331 47.69zM70.331 43.556c-.193 0-.35-.156-.35-.35v-1.378c0-.193.156-.35.35-.35s.35.156.35.35v1.378C70.681 43.4 70.525 43.556 70.331 43.556z"/><path fill="#fdfcee" d="M61.12,42.228L61.12,42.228c-1.213-1.213-2.791-1.621-3.505-0.907L43.676,55.26c-0.646,0.646-2.31,5.51-2.816,6.635c-0.051,0.113-0.026,0.245,0.062,0.333l0.151,0.151c0.116,0.116,0.291,0.149,0.441,0.082c1.26-0.567,5.939-2.154,6.574-2.789l13.939-13.939C62.741,45.018,62.333,43.441,61.12,42.228z"/><path fill="#fcb9b9" d="M59.751,48.008l2.464-2.464c0.715-0.715,0.307-2.292-0.907-3.505l0,0c-1.213-1.213-2.791-1.621-3.505-0.907l-2.345,2.345C56.896,44.979,58.303,46.516,59.751,48.008z"/><path fill="#4a5397" d="M41.743,59.649c-0.376,0.99-0.699,1.852-0.882,2.258c-0.055,0.122-0.028,0.263,0.067,0.358l0.163,0.163c0.126,0.126,0.317,0.159,0.479,0.086c0.438-0.197,1.253-0.506,2.181-0.858L41.743,59.649z"/><path fill="#f1bc19" d="M48.196 44.059H54.434999999999995V60.004H48.196z" transform="rotate(45.001 51.316 52.032)"/><path fill="#7782ac" d="M54.814 44.028H61.053V46.801H54.814z" transform="rotate(45.001 57.934 45.414)"/><path fill="#472b29" d="M41.596,62.626c-0.199,0-0.395-0.078-0.544-0.227l-0.151-0.151c-0.199-0.2-0.253-0.494-0.138-0.751c0.154-0.344,0.417-1.037,0.726-1.853c0.942-2.488,1.701-4.429,2.167-4.896L57.594,40.81c0.877-0.875,2.65-0.479,4.036,0.906c1.386,1.387,1.784,3.159,0.907,4.037L48.598,59.692c-0.451,0.451-2.22,1.144-4.668,2.072c-0.87,0.33-1.621,0.614-2.017,0.793C41.811,62.603,41.703,62.626,41.596,62.626z M58.823,41.099c-0.295,0-0.538,0.082-0.697,0.242L44.187,55.28c-0.39,0.389-1.396,3.044-1.997,4.63c-0.316,0.834-0.585,1.543-0.743,1.894l0.137,0.064c0.438-0.182,1.199-0.471,2.08-0.805c1.508-0.572,4.031-1.529,4.403-1.901l13.939-13.939c0.552-0.551,0.127-1.94-0.907-2.975c-0.54-0.54-1.167-0.924-1.768-1.078C59.151,41.123,58.979,41.099,58.823,41.099z"/><path fill="#472b29" d="M59.27 48.764c-.07 0-.141-.027-.194-.081l-4.412-4.412c-.107-.107-.107-.281 0-.389s.281-.107.389 0l4.412 4.412c.107.107.107.281 0 .389C59.411 48.737 59.34 48.764 59.27 48.764zM47.829 59.743c-.07 0-.141-.027-.194-.081l-4.094-4.094c-.107-.107-.107-.281 0-.389s.281-.107.389 0l4.094 4.094c.107.107.107.281 0 .389C47.97 59.715 47.9 59.743 47.829 59.743zM43.64 61.545c-.07 0-.141-.027-.194-.081l-1.517-1.517c-.107-.107-.107-.281 0-.389s.281-.107.389 0l1.517 1.517c.107.107.107.281 0 .389C43.781 61.517 43.71 61.545 43.64 61.545zM61.077 46.959c-.07 0-.141-.027-.194-.081l-4.27-4.271c-.107-.107-.107-.281 0-.389s.281-.107.389 0l4.27 4.271c.107.107.107.281 0 .389C61.217 46.931 61.147 46.959 61.077 46.959z"/><path fill="#472b29" d="M55.886 45.102c-.023 0-.047-.004-.069-.014-.089-.038-.13-.142-.092-.23l.953-2.224c.038-.089.144-.13.23-.092.089.038.13.142.092.23l-.953 2.224C56.019 45.063 55.953 45.102 55.886 45.102zM56.671 45.849c-.023 0-.047-.004-.069-.014-.089-.038-.13-.142-.092-.23l.953-2.223c.038-.09.144-.131.23-.092.089.038.13.142.092.23l-.953 2.223C56.804 45.81 56.739 45.849 56.671 45.849zM57.457 46.597c-.023 0-.047-.004-.069-.014-.089-.038-.13-.142-.092-.23l.952-2.224c.038-.09.144-.13.23-.092.089.038.13.142.092.23l-.952 2.224C57.59 46.558 57.525 46.597 57.457 46.597zM58.243 47.345c-.023 0-.047-.004-.069-.014-.089-.038-.13-.142-.092-.23l.953-2.224c.038-.09.145-.129.23-.092.089.038.13.142.092.23l-.953 2.224C58.375 47.306 58.31 47.345 58.243 47.345zM59.028 48.093c-.023 0-.047-.004-.069-.014-.089-.038-.13-.142-.092-.23l.953-2.224c.038-.09.145-.13.23-.092.089.038.13.142.092.23l-.953 2.224C59.161 48.054 59.095 48.093 59.028 48.093z"/><path fill="#fdfcef" d="M40.416,75.257c1.883,0,3.517,0,3.54,0c2.11,0,3.821-1.674,3.821-3.739c0-1.802-1.302-3.305-3.035-3.66c0.02-0.158,0.034-0.317,0.034-0.48c0-2.139-1.772-3.873-3.957-3.873c-1.29,0-2.433,0.607-3.155,1.543c-0.185-2.381-2.358-4.218-4.9-3.913c-1.859,0.223-3.397,1.629-3.739,3.431c-0.11,0.578-0.098,1.139,0.011,1.665c-0.498-0.525-1.208-0.856-1.998-0.856c-1.446,0-2.627,1.102-2.72,2.494c-0.657-0.142-1.371-0.133-2.123,0.143c-1.438,0.528-2.462,1.853-2.522,3.356c-0.085,2.133,1.657,3.889,3.818,3.889c0.164,0,0.741,0,0.874,0h7.934 M33.938,75.257h0.36"/><path fill="#472b29" d="M43.955,75.757h-3.54c-0.276,0-0.5-0.224-0.5-0.5s0.224-0.5,0.5-0.5h3.54c1.831,0,3.321-1.453,3.321-3.239c0-1.524-1.108-2.856-2.637-3.169c-0.256-0.053-0.429-0.295-0.396-0.555c0.018-0.137,0.03-0.274,0.03-0.416c0-1.86-1.551-3.373-3.457-3.373c-1.092,0-2.098,0.491-2.76,1.349c-0.126,0.164-0.343,0.23-0.538,0.174c-0.198-0.06-0.34-0.234-0.355-0.44c-0.079-1.02-0.565-1.944-1.369-2.604c-0.829-0.681-1.885-0.98-2.974-0.854c-1.646,0.197-3.006,1.442-3.307,3.028c-0.094,0.494-0.091,0.988,0.009,1.471c0.046,0.219-0.06,0.441-0.258,0.545c-0.197,0.103-0.438,0.063-0.595-0.1c-0.427-0.451-1.008-0.699-1.635-0.699c-1.17,0-2.146,0.891-2.221,2.027c-0.01,0.146-0.082,0.278-0.198,0.366c-0.116,0.087-0.264,0.121-0.407,0.089c-0.637-0.138-1.241-0.098-1.846,0.125c-1.262,0.464-2.144,1.631-2.193,2.905c-0.035,0.876,0.282,1.708,0.895,2.345c0.635,0.661,1.495,1.024,2.423,1.024h8.808c0.276,0,0.5,0.224,0.5,0.5s-0.224,0.5-0.5,0.5h-8.808c-1.186,0-2.331-0.485-3.145-1.331c-0.802-0.835-1.218-1.928-1.173-3.077c0.066-1.675,1.212-3.203,2.849-3.806c0.612-0.225,1.246-0.308,1.881-0.244c0.345-1.396,1.629-2.424,3.136-2.424c0.493,0,0.977,0.113,1.413,0.322c0.01-0.241,0.037-0.483,0.083-0.726c0.381-2.009,2.096-3.586,4.17-3.834c1.363-0.168,2.686,0.218,3.727,1.072c0.748,0.614,1.278,1.409,1.546,2.302c0.791-0.648,1.786-1.007,2.843-1.007c2.458,0,4.457,1.962,4.457,4.373c0,0.034-0.001,0.068-0.002,0.103c1.765,0.555,3.004,2.188,3.004,4.037C48.277,73.855,46.338,75.757,43.955,75.757z M34.298,75.757h-0.36c-0.276,0-0.5-0.224-0.5-0.5s0.224-0.5,0.5-0.5h0.36c0.276,0,0.5,0.224,0.5,0.5S34.575,75.757,34.298,75.757z"/><path fill="#472b29" d="M42.248 69.954c-.018 0-.036-.002-.055-.006-.135-.03-.22-.164-.189-.299.037-.164.094-.325.169-.479.604-1.224 2.274-1.676 3.722-1.007.126.058.181.206.122.331-.058.126-.207.18-.331.122-1.207-.557-2.579-.208-3.063.774-.059.118-.102.241-.13.367C42.466 69.875 42.364 69.954 42.248 69.954zM37.089 75.757h-1.107c-.276 0-.5-.224-.5-.5s.224-.5.5-.5h1.107c.276 0 .5.224.5.5S37.366 75.757 37.089 75.757z"/></svg>